HIERARCHY
ROOT Hips
{
	OFFSET 0.000000 83.208069 2.550922
	CHANNELS 6 Xposition Yposition Zposition Xrotation Yrotation Zrotation
	JOINT Pelvis
	{
		OFFSET 0.000000 0.000000 0.000000
		CHANNELS 3 Xrotation Yrotation Zrotation
		JOINT LeftUpLeg
		{
			OFFSET 8.479694 -4.795517 -0.379053
			CHANNELS 3 Xrotation Yrotation Zrotation
			JOINT LeftLeg
			{
				OFFSET 0.485052 -32.551468 0.112863
				CHANNELS 3 Xrotation Yrotation Zrotation
				JOINT LeftFoot
				{
					OFFSET 0.438033 -32.635670 -3.012641
					CHANNELS 3 Xrotation Yrotation Zrotation
					JOINT LeftToeBase
					{
						OFFSET 0.970169 -13.225353 11.864223
						CHANNELS 3 Xrotation Yrotation Zrotation
						End Site
						{
							OFFSET 0.000000 12.319231 0.000000
						}
					}
					JOINT LFootTongue
					{
						OFFSET 1.142399 -1.059789 6.665162
						CHANNELS 3 Xrotation Yrotation Zrotation
						End Site
						{
							OFFSET 0.000000 12.319230 0.000000
						}
					}
				}
				JOINT LeftPantLeg
				{
					OFFSET 1.152549 -16.519323 -2.284731
					CHANNELS 3 Xrotation Yrotation Zrotation
					End Site
					{
						OFFSET 0.000000 24.746851 0.000000
					}
				}
			}
		}
		JOINT RightUpLeg
		{
			OFFSET -8.479694 -4.795517 -0.379053
			CHANNELS 3 Xrotation Yrotation Zrotation
			JOINT RightLeg
			{
				OFFSET -0.484100 -32.551483 0.112903
				CHANNELS 3 Xrotation Yrotation Zrotation
				JOINT RightFoot
				{
					OFFSET -0.438985 -32.635651 -3.012681
					CHANNELS 3 Xrotation Yrotation Zrotation
					JOINT RightToeBase
					{
						OFFSET -0.970169 -13.225354 11.864223
						CHANNELS 3 Xrotation Yrotation Zrotation
						End Site
						{
							OFFSET 0.000000 12.319217 0.000000
						}
					}
					JOINT RFootTongue
					{
						OFFSET -1.142220 -1.059793 6.665161
						CHANNELS 3 Xrotation Yrotation Zrotation
						End Site
						{
							OFFSET 0.000000 12.319217 0.000000
						}
					}
				}
				JOINT RightPantLeg
				{
					OFFSET -1.153501 -16.519308 -2.284772
					CHANNELS 3 Xrotation Yrotation Zrotation
					End Site
					{
						OFFSET 0.000000 24.746878 0.000000
					}
				}
			}
		}
	}
	JOINT Spine
	{
		OFFSET 0.000000 7.722015 1.166203
		CHANNELS 3 Xrotation Yrotation Zrotation
		JOINT Spine1
		{
			OFFSET 0.000000 12.024086 0.248766
			CHANNELS 3 Xrotation Yrotation Zrotation
			JOINT Spine2
			{
				OFFSET -0.000000 11.503036 -0.491240
				CHANNELS 3 Xrotation Yrotation Zrotation
				JOINT Neck
				{
					OFFSET 0.000000 18.430687 -3.123054
					CHANNELS 3 Xrotation Yrotation Zrotation
					JOINT Head
					{
						OFFSET -0.000000 9.051071 1.034021
						CHANNELS 3 Xrotation Yrotation Zrotation
						JOINT HairB
						{
							OFFSET 0.208397 24.786072 24.822304
							CHANNELS 3 Xrotation Yrotation Zrotation
							End Site
							{
								OFFSET 0.000000 32.263794 0.000000
							}
						}
						JOINT HairA
						{
							OFFSET -7.081073 24.428299 23.196634
							CHANNELS 3 Xrotation Yrotation Zrotation
							End Site
							{
								OFFSET 0.000000 32.263779 0.000000
							}
						}
						JOINT Hat
						{
							OFFSET 16.728800 15.048309 -15.439650
							CHANNELS 3 Xrotation Yrotation Zrotation
							End Site
							{
								OFFSET 0.000000 32.263794 0.000000
							}
						}
					}
				}
				JOINT LeftShoulder
				{
					OFFSET 6.197824 13.665230 -4.064723
					CHANNELS 3 Xrotation Yrotation Zrotation
					JOINT LeftArm
					{
						OFFSET 7.778132 -0.187073 -1.709282
						CHANNELS 3 Xrotation Yrotation Zrotation
						JOINT LeftForeArm
						{
							OFFSET 21.954697 0.000000 -2.041093
							CHANNELS 3 Xrotation Yrotation Zrotation
							JOINT LeftHand
							{
								OFFSET 22.992908 0.000000 -0.870901
								CHANNELS 3 Xrotation Yrotation Zrotation
								JOINT LeftHandThumb1
								{
									OFFSET 3.593975 -1.460358 3.365570
									CHANNELS 3 Xrotation Yrotation Zrotation
									JOINT LeftHandThumb2
									{
										OFFSET 3.016712 -1.561966 2.119022
										CHANNELS 3 Xrotation Yrotation Zrotation
										JOINT LeftHandThumb3
										{
											OFFSET 3.029564 -2.099800 1.415844
											CHANNELS 3 Xrotation Yrotation Zrotation
											End Site
											{
												OFFSET 0.000000 3.948677 0.000000
											}
										}
									}
								}
								JOINT LeftHandIndex1
								{
									OFFSET 11.372505 0.065018 3.699154
									CHANNELS 3 Xrotation Yrotation Zrotation
									JOINT LeftHandIndex2
									{
										OFFSET 3.229195 -0.574921 -0.143498
										CHANNELS 3 Xrotation Yrotation Zrotation
										JOINT LeftHandIndex3
										{
											OFFSET 3.111160 -1.135635 -0.280794
											CHANNELS 3 Xrotation Yrotation Zrotation
											End Site
											{
												OFFSET 0.000000 3.323822 0.000000
											}
										}
									}
								}
								JOINT LeftHandMiddle1
								{
									OFFSET 11.327377 0.426697 -0.098180
									CHANNELS 3 Xrotation Yrotation Zrotation
									JOINT LeftHandMiddle2
									{
										OFFSET 3.290932 -0.875465 -0.186927
										CHANNELS 3 Xrotation Yrotation Zrotation
										JOINT LeftHandMiddle3
										{
											OFFSET 3.094551 -1.150223 -0.267588
											CHANNELS 3 Xrotation Yrotation Zrotation
											End Site
											{
												OFFSET 0.000000 3.312233 0.000000
											}
										}
									}
								}
								JOINT LeftHandRing1
								{
									OFFSET 11.497078 -0.008904 -3.070051
									CHANNELS 3 Xrotation Yrotation Zrotation
									JOINT LeftHandRing2
									{
										OFFSET 2.881340 -0.992859 -0.186928
										CHANNELS 3 Xrotation Yrotation Zrotation
										JOINT LeftHandRing3
										{
											OFFSET 3.022743 -1.281013 -0.290960
											CHANNELS 3 Xrotation Yrotation Zrotation
											End Site
											{
												OFFSET 0.000000 3.295853 0.000000
											}
										}
									}
								}
								JOINT LeftHandPinky1
								{
									OFFSET 10.529488 -1.373093 -5.625615
									CHANNELS 3 Xrotation Yrotation Zrotation
									JOINT LeftHandPinky2
									{
										OFFSET 2.679024 -0.950073 -0.330554
										CHANNELS 3 Xrotation Yrotation Zrotation
										JOINT LeftHandPinky3
										{
											OFFSET 2.724571 -0.843613 -0.252685
											CHANNELS 3 Xrotation Yrotation Zrotation
											End Site
											{
												OFFSET 0.000000 2.863358 0.000000
											}
										}
									}
								}
							}
							JOINT LSleeve
							{
								OFFSET 6.633202 -0.344879 -1.263650
								CHANNELS 3 Xrotation Yrotation Zrotation
								End Site
								{
									OFFSET 0.000000 14.885345 0.000000
								}
							}
						}
					}
				}
				JOINT RightShoulder
				{
					OFFSET -6.197824 13.665230 -4.064723
					CHANNELS 3 Xrotation Yrotation Zrotation
					JOINT RightArm
					{
						OFFSET -7.778132 -0.187073 -1.709282
						CHANNELS 3 Xrotation Yrotation Zrotation
						JOINT RightForeArm
						{
							OFFSET -21.954697 0.000000 -2.041093
							CHANNELS 3 Xrotation Yrotation Zrotation
							JOINT RightHand
							{
								OFFSET -22.992908 0.000000 -0.870901
								CHANNELS 3 Xrotation Yrotation Zrotation
								JOINT RightHandThumb1
								{
									OFFSET -3.593975 -1.460358 3.365570
									CHANNELS 3 Xrotation Yrotation Zrotation
									JOINT RightHandThumb2
									{
										OFFSET -3.016712 -1.561966 2.119022
										CHANNELS 3 Xrotation Yrotation Zrotation
										JOINT RightHandThumb3
										{
											OFFSET -3.029564 -2.099800 1.415844
											CHANNELS 3 Xrotation Yrotation Zrotation
											End Site
											{
												OFFSET 0.000000 3.948677 0.000000
											}
										}
									}
								}
								JOINT RightHandIndex1
								{
									OFFSET -11.372513 0.065018 3.699154
									CHANNELS 3 Xrotation Yrotation Zrotation
									JOINT RightHandIndex2
									{
										OFFSET -3.229187 -0.574921 -0.143498
										CHANNELS 3 Xrotation Yrotation Zrotation
										JOINT RightHandIndex3
										{
											OFFSET -3.111160 -1.135635 -0.280794
											CHANNELS 3 Xrotation Yrotation Zrotation
											End Site
											{
												OFFSET 0.000000 3.323822 0.000000
											}
										}
									}
								}
								JOINT RightHandMiddle1
								{
									OFFSET -11.327377 0.426697 -0.098180
									CHANNELS 3 Xrotation Yrotation Zrotation
									JOINT RightHandMiddle2
									{
										OFFSET -3.290932 -0.875465 -0.186927
										CHANNELS 3 Xrotation Yrotation Zrotation
										JOINT RightHandMiddle3
										{
											OFFSET -3.094551 -1.150223 -0.267588
											CHANNELS 3 Xrotation Yrotation Zrotation
											End Site
											{
												OFFSET 0.000000 3.312233 0.000000
											}
										}
									}
								}
								JOINT RightHandRing1
								{
									OFFSET -11.497078 -0.008904 -3.070051
									CHANNELS 3 Xrotation Yrotation Zrotation
									JOINT RightHandRing2
									{
										OFFSET -2.881340 -0.992859 -0.186928
										CHANNELS 3 Xrotation Yrotation Zrotation
										JOINT RightHandRing3
										{
											OFFSET -3.022743 -1.281013 -0.290960
											CHANNELS 3 Xrotation Yrotation Zrotation
											End Site
											{
												OFFSET 0.000000 3.295853 0.000000
											}
										}
									}
								}
								JOINT RightHandPinky1
								{
									OFFSET -10.529488 -1.373093 -5.625615
									CHANNELS 3 Xrotation Yrotation Zrotation
									JOINT RightHandPinky2
									{
										OFFSET -2.679024 -0.950073 -0.330554
										CHANNELS 3 Xrotation Yrotation Zrotation
										JOINT RightHandPinky3
										{
											OFFSET -2.724571 -0.843613 -0.252685
											CHANNELS 3 Xrotation Yrotation Zrotation
											End Site
											{
												OFFSET 0.000000 2.863358 0.000000
											}
										}
									}
								}
							}
							JOINT RSleeve
							{
								OFFSET -6.633202 -0.344879 -1.263650
								CHANNELS 3 Xrotation Yrotation Zrotation
								End Site
								{
									OFFSET 0.000000 14.885345 0.000000
								}
							}
						}
					}
				}
				JOINT Backpack
				{
					OFFSET -0.000000 -2.471489 36.677479
					CHANNELS 3 Xrotation Yrotation Zrotation
					End Site
					{
						OFFSET 0.000000 20.427322 0.000000
					}
				}
				JOINT Hood
				{
					OFFSET -0.000000 18.754143 -10.430963
					CHANNELS 3 Xrotation Yrotation Zrotation
					JOINT Hood1
					{
						OFFSET -0.000000 -5.011017 -7.685929
						CHANNELS 3 Xrotation Yrotation Zrotation
						End Site
						{
							OFFSET 0.000000 9.175171 0.000000
						}
					}
				}
				JOINT LHoodieString
				{
					OFFSET 5.250455 16.397728 3.089918
					CHANNELS 3 Xrotation Yrotation Zrotation
					JOINT LHoodieString1
					{
						OFFSET 0.257711 -6.364296 3.694587
						CHANNELS 3 Xrotation Yrotation Zrotation
						JOINT LHoodieString2
						{
							OFFSET 0.000000 -9.643806 2.679132
							CHANNELS 3 Xrotation Yrotation Zrotation
							End Site
							{
								OFFSET 0.000000 10.009033 0.000000
							}
						}
					}
				}
				JOINT RHoodieString
				{
					OFFSET -5.250455 16.397728 3.089918
					CHANNELS 3 Xrotation Yrotation Zrotation
					JOINT RHoodieString1
					{
						OFFSET -0.257711 -6.364296 3.694587
						CHANNELS 3 Xrotation Yrotation Zrotation
						JOINT RHoodieString2
						{
							OFFSET 0.000000 -9.643806 2.679132
							CHANNELS 3 Xrotation Yrotation Zrotation
							End Site
							{
								OFFSET 0.000000 10.009033 0.000000
							}
						}
					}
				}
			}
			JOINT LBackpack_Strap
			{
				OFFSET 15.223173 -7.719788 -6.610897
				CHANNELS 3 Xrotation Yrotation Zrotation
				End Site
				{
					OFFSET 0.000000 16.040596 0.000000
				}
			}
			JOINT RBackpack_Strap
			{
				OFFSET -15.223000 -7.719788 -6.610897
				CHANNELS 3 Xrotation Yrotation Zrotation
				End Site
				{
					OFFSET 0.000000 16.040596 0.000000
				}
			}
		}
	}
	JOINT BoyFacialAnim_Joint
	{
		OFFSET 1.000000 -82.208069 -1.550922
		CHANNELS 3 Xrotation Yrotation Zrotation
		End Site
		{
			OFFSET 0.000000 30.012787 0.000000
		}
	}
}
MOTION
Frames: 4
Frame Time: 0.016667
-0.155256 77.263008 -0.546290 -6.087185 -43.034956 -4.015864 -0.000000 0.000001 0.000000 -27.324696 5.709839 13.119173 34.127573 -13.650710 -0.314651 -4.103203 0.645264 -7.337918 -0.000000 -0.000000 -0.000000 -0.000000 -0.000000 0.000000 0.000001 -0.000001 0.000001 -4.369930 -13.690437 -14.854044 32.593372 -9.446718 -0.293735 -20.554718 -3.767390 16.380602 -0.000000 0.000001 -0.000000 -0.000000 0.000001 -0.000000 -0.000002 -0.000000 -0.000000 5.835591 4.642063 -1.243015 11.839516 9.031703 -3.079605 11.839511 9.031707 -3.079606 -4.303140 -1.284332 0.197021 -6.271521 20.437789 -0.378350 -0.000001 0.000000 -0.000000 -0.000001 0.000000 -0.000000 -0.000001 0.000000 -0.000000 1.386279 -0.696151 -7.881039 -19.002864 0.000420 -63.177891 9.251914 -44.446780 4.868902 24.184571 5.058532 15.433424 8.571478 6.821128 -3.543222 -8.076087 -8.188544 6.083370 0.000002 0.000000 0.000002 -0.286927 -9.491434 9.541913 -1.722153 -3.686487 -6.452633 0.000001 0.000000 -0.000001 1.221378 4.915357 1.329601 -3.872656 -5.280079 -16.040137 -0.000001 -0.000001 0.000002 -0.065432 7.676646 -11.549531 -6.781756 -6.532239 -27.610785 0.000001 -0.000001 -0.000000 -0.347104 8.028433 -14.741143 -8.678143 -6.473940 -40.642358 0.000004 -0.000000 -0.000000 -0.000003 -0.000001 0.000000 1.402684 9.461282 9.791411 -3.752327 -21.578822 58.594458 -6.527809 38.731257 7.490331 14.281512 12.239800 12.527422 -9.682334 -7.018293 -2.444861 0.585534 -10.887421 -8.373296 -0.000001 -0.000000 0.000001 -0.921637 1.506224 -7.602856 -1.675403 3.450019 7.007313 -0.000000 -0.000001 -0.000001 -0.985291 1.650778 -4.040454 -5.592736 6.065330 24.700949 0.000001 0.000001 -0.000000 1.133570 -1.324065 1.376831 -8.487951 7.558955 32.968729 -0.000001 0.000000 0.000001 1.168327 -0.566658 3.728730 -10.338912 8.254442 42.185728 -0.000000 -0.000000 -0.000001 -0.000000 0.000001 -0.000000 0.000002 -0.000002 0.000001 0.000002 -0.000002 0.000001 0.000002 -0.000002 0.000001 0.000002 -0.000002 0.000001 0.000002 -0.000002 0.000001 0.000002 -0.000002 0.000001 0.000002 -0.000002 0.000001 0.000002 -0.000002 0.000001 0.000002 -0.000002 0.000001 -0.000000 -0.000001 0.000000 -0.000000 -0.000001 0.000000 -0.000000 0.000001 0.000000 
-0.070180 77.287468 -0.550712 -5.610111 -43.061788 -3.854708 0.000000 0.000001 0.000000 -27.684295 5.429909 13.118721 34.081626 -13.411403 -0.264494 -4.006867 0.659035 -7.386014 -0.000000 -0.000002 0.000000 -0.000000 -0.000002 0.000000 0.000001 0.000001 0.000000 -4.616973 -13.449802 -14.607183 32.421317 -9.723206 -0.297120 -20.357089 -3.777422 16.405131 -0.000000 -0.000000 0.000000 -0.000000 -0.000000 0.000000 0.000001 0.000001 0.000000 5.817693 4.525801 -1.240368 11.799048 8.799384 -3.072765 11.799039 8.799399 -3.072770 -4.422136 -1.092329 0.277848 -5.829499 20.627349 -0.313118 -0.000001 -0.000000 0.000000 -0.000001 -0.000000 0.000000 -0.000001 -0.000000 0.000000 1.383085 -0.397816 -7.926385 -18.751291 0.297526 -62.646816 9.290054 -45.106436 4.964189 24.057663 5.033942 14.940083 8.261315 6.614241 -3.465520 -8.057253 -8.142323 6.098135 -0.000003 -0.000001 0.000000 -0.311988 -9.459659 9.420102 -1.732981 -3.698066 -6.505487 0.000002 -0.000001 0.000001 1.191044 4.780968 1.334310 -3.848097 -5.260892 -15.928544 0.000002 -0.000001 -0.000001 -0.094502 7.601861 -11.384856 -6.730752 -6.516996 -27.391809 0.000001 -0.000001 0.000001 -0.339084 8.019670 -14.473475 -8.639740 -6.469459 -40.452622 0.000001 0.000000 -0.000000 -0.000001 -0.000004 0.000002 1.380347 9.243847 9.868297 -4.127786 -20.510235 57.763279 -5.947309 38.712679 7.949942 13.786915 12.085966 12.123091 -9.765798 -6.835120 -2.537893 0.483885 -10.661811 -8.369445 0.000000 -0.000000 0.000002 -0.940330 1.591629 -7.531320 -1.680913 3.455584 7.035537 0.000001 0.000001 0.000000 -0.993100 1.685651 -4.021548 -5.535700 6.033830 24.447122 -0.000000 -0.000003 -0.000001 1.142266 -1.344199 1.344015 -8.405444 7.539040 32.652368 0.000000 -0.000001 -0.000000 1.225752 -0.664885 3.611771 -10.279540 8.243148 41.947853 -0.000000 -0.000001 -0.000000 -0.000000 -0.000000 0.000002 -0.000000 0.000000 0.000001 -0.000000 0.000000 0.000001 -0.000000 0.000000 0.000001 -0.000000 0.000000 0.000001 -0.000000 0.000000 0.000001 -0.000000 0.000000 0.000001 -0.000000 0.000000 0.000001 -0.000000 0.000000 0.000001 -0.000000 0.000000 0.000001 -0.000001 -0.000001 0.000001 -0.000001 -0.000001 0.000001 0.000000 0.000001 0.000000 
0.190995 77.177361 -0.622586 -4.789810 -43.163913 -3.348561 -0.000000 0.000001 0.000000 -28.632160 4.889444 12.817618 34.547513 -12.823690 -0.081959 -3.992815 0.700429 -7.486049 0.000000 0.000002 0.000000 0.000000 0.000002 0.000000 -0.000000 0.000004 0.000001 -5.760138 -12.895019 -14.683650 33.188989 -10.016015 -0.227950 -20.423138 -3.853400 16.520749 -0.000000 0.000002 0.000000 -0.000000 0.000002 0.000000 0.000001 0.000000 -0.000000 5.840170 4.322291 -1.231168 11.833213 8.390646 -3.031211 11.833214 8.390646 -3.031208 -4.921766 -0.745162 0.377361 -5.471398 20.932038 -0.687779 0.000001 0.000000 -0.000000 0.000001 0.000000 -0.000000 0.000001 0.000000 -0.000000 1.353762 -0.084327 -8.114182 -18.411096 0.973284 -61.860409 9.137813 -46.720106 5.728047 23.833286 5.079864 14.055230 7.491421 6.024786 -3.380328 -8.025048 -8.057674 6.128859 -0.000001 0.000002 -0.000004 -0.382040 -9.408024 9.113223 -1.763428 -3.730391 -6.653868 0.000000 0.000000 -0.000002 1.117326 4.459080 1.321632 -3.795745 -5.219664 -15.689916 0.000001 0.000000 -0.000002 -0.156439 7.425722 -11.023856 -6.616757 -6.482062 -26.900992 0.000003 0.000000 0.000000 -0.303838 8.009703 -13.875109 -8.554429 -6.458997 -40.030742 -0.000001 0.000002 0.000001 0.000003 0.000002 -0.000001 1.366461 8.740148 9.888896 -4.578997 -19.224565 56.481945 -5.006319 39.888814 7.855215 13.476150 11.406343 12.028097 -10.010468 -6.349539 -2.725458 0.230976 -10.107852 -8.356594 -0.000001 -0.000000 0.000002 -0.993610 1.818930 -7.353972 -1.696726 3.471453 7.116833 -0.000000 0.000002 -0.000000 -1.012618 1.770267 -3.965008 -5.400810 5.962749 23.865559 -0.000000 0.000002 -0.000000 1.164283 -1.401875 1.285274 -8.221014 7.487989 31.923314 0.000000 -0.000001 -0.000001 1.374362 -0.917100 3.360333 -10.143781 8.216275 41.403661 0.000001 -0.000000 -0.000000 -0.000000 0.000001 0.000001 0.000001 -0.000001 -0.000000 0.000001 -0.000001 -0.000000 0.000001 -0.000001 -0.000000 0.000001 -0.000001 -0.000000 0.000001 -0.000001 0.000000 0.000001 -0.000002 -0.000000 0.000001 -0.000001 -0.000000 0.000001 -0.000001 -0.000000 0.000001 -0.000001 0.000000 -0.000001 -0.000003 0.000001 -0.000001 -0.000003 0.000001 -0.000000 0.000001 0.000000 
0.651852 76.875198 -0.768215 -3.487770 -43.409103 -2.455837 -0.000000 -0.000002 -0.000000 -30.475686 4.187566 12.400646 35.778518 -11.988941 0.113853 -4.146487 0.734104 -7.522741 -0.000000 0.000001 0.000000 -0.000000 0.000001 0.000000 -0.000000 0.000002 0.000000 -8.036163 -12.003362 -15.084836 35.111113 -10.224257 -0.055819 -20.828730 -3.973349 16.710782 0.000000 -0.000000 0.000000 0.000000 -0.000000 0.000000 0.000001 0.000000 0.000000 5.898354 4.078232 -1.213317 11.935584 7.898666 -2.958464 11.935589 7.898660 -2.958463 -5.669656 -0.289488 0.470746 -5.266486 21.333568 -1.343457 0.000001 0.000000 0.000000 0.000001 0.000000 0.000000 0.000001 0.000000 0.000000 1.309645 0.214996 -8.413617 -17.996982 1.904389 -60.997202 8.864222 -48.999610 6.873304 23.578759 5.043553 13.198883 6.400272 5.087842 -3.384003 -7.994883 -7.969606 6.166164 0.000001 0.000001 0.000000 -0.491652 -9.363251 8.668658 -1.810894 -3.780718 -6.885217 -0.000000 -0.000001 -0.000000 1.009507 4.011630 1.276055 -3.730223 -5.167744 -15.390622 0.000001 -0.000000 0.000000 -0.230692 7.183053 -10.559671 -6.471036 -6.432521 -26.256098 0.000001 -0.000000 0.000000 -0.232041 8.006518 -13.092083 -8.443294 -6.444499 -39.480631 0.000001 -0.000001 0.000000 0.000001 0.000001 0.000000 1.342448 8.063066 9.863276 -5.014305 -17.953164 54.996977 -3.830281 42.024925 7.326424 13.431892 10.533282 11.883339 -10.396514 -5.618704 -2.940285 -0.128323 -9.319461 -8.334182 0.000001 -0.000000 0.000002 -1.078838 2.160583 -7.099883 -1.721763 3.496431 7.245126 -0.000000 -0.000001 0.000001 -1.047014 1.888749 -3.871199 -5.220878 5.865178 23.085331 -0.000000 -0.000001 0.000000 1.196041 -1.492935 1.225738 -7.973449 7.415483 30.940931 0.000000 0.000001 0.000000 1.591829 -1.288465 3.043476 -9.962284 8.178253 40.674757 -0.000000 0.000001 0.000000 -0.000000 0.000000 0.000001 0.000000 -0.000002 -0.000001 0.000000 -0.000002 -0.000001 0.000000 -0.000002 -0.000001 0.000000 -0.000002 -0.000001 0.000000 -0.000002 -0.000000 0.000000 -0.000002 -0.000001 0.000000 -0.000002 -0.000001 0.000000 -0.000002 -0.000001 0.000000 -0.000001 -0.000000 -0.000001 -0.000001 0.000001 -0.000001 -0.000001 0.000001 -0.000000 -0.000002 -0.000000 
